<svg xmlns="http://www.w3.org/2000/svg" shape-rendering="geometricPrecision" text-rendering="geometricPrecision" image-rendering="optimizeQuality" fill-rule="evenodd" clip-rule="evenodd" viewBox="0 0 509 512.123"><path fill-rule="nonzero" d="M62.282 0h323.575c34.292 0 62.283 27.991 62.283 62.283v322.76c0 34.292-27.991 62.282-62.283 62.282H62.282C27.99 447.325 0 419.335 0 385.043V62.283C0 27.991 27.99 0 62.282 0zm56.183 246.083c-8.285-10.729-6.304-26.144 4.425-34.43 10.729-8.286 26.144-6.305 34.43 4.424l26.972 34.79L292.84 142.07c9.56-9.613 25.105-9.656 34.718-.096 9.614 9.56 9.657 25.105.096 34.719L199.386 305.255a24.983 24.983 0 01-2.405 2.116c-10.729 8.286-26.144 6.305-34.43-4.424l-44.086-56.864zm353.177-164.28a103.085 103.085 0 017.464 6.765C497.551 107.013 509 132.47 509 160.487v249.824c0 56.03-45.781 101.812-101.812 101.812H162.671c-28.016 0-53.474-11.449-71.918-29.894a103.041 103.041 0 01-6.764-7.462h323.199c34.81 0 63.6-28.117 64.438-62.901h.016v-1.141l.003-.414V160.487l-.003-.414v-78.27zm-85.785-44.448H62.282c-13.674 0-24.927 11.254-24.927 24.928v322.76c0 13.674 11.253 24.928 24.927 24.928h323.575c13.674 0 24.928-11.254 24.928-24.928V62.283c0-13.674-11.254-24.928-24.928-24.928z"/></svg>